<svg width="66" height="129" viewBox="0 0 66 129" fill="none" xmlns="http://www.w3.org/2000/svg">
<path d="M23.75 45.25C27.3167 45.25 30.4667 46.0833 33.2 47.75C35.9667 49.3833 38.1 51.6667 39.6 54.6C41.1 57.5333 41.85 60.85 41.85 64.55C41.85 68.35 40.7 71.8667 38.4 75.1C36.1333 78.3 33.3 80.85 29.9 82.75C26.5 84.6167 23.2667 85.55 20.2 85.55C18.6333 85.55 17.1 85.4667 15.6 85.3C13.0333 85.1333 11.0833 85.05 9.75 85.05H2.75V83L7.45 79.3V49.9L2.15 48.2L3.4 45.7H9.7C12.8 45.7 15.85 45.6 18.85 45.4C21.05 45.2667 22.6833 45.2 23.75 45.2V45.25ZM21.6 81.5C23.9 81.5 25.9833 80.8833 27.85 79.65C29.7167 78.3833 31.1833 76.65 32.25 74.45C33.3167 72.2167 33.85 69.7167 33.85 66.95C33.85 63.65 33.3333 60.65 32.3 57.95C31.3 55.2167 29.75 53.05 27.65 51.45C25.55 49.8167 22.95 49 19.85 49C18.0167 49 16.35 49.5167 14.85 50.55V80.35C16.75 81.0833 19 81.45 21.6 81.45V81.5Z" fill="#FFA800"/>
<path d="M58.85 51.55V85H55.45L31.85 56.25V79.85L37.85 82.5L36.6 85H23.75V82.95L28.45 79.15V51.1L23.15 48.2L24.4 45.7H32.45L55.45 73.65V50.75L49.5 48.2L50.75 45.7H63.6V47.75L58.85 51.55Z" fill="#7E4EE2"/>
</svg>
