<svg width="38" height="70" viewBox="0 0 38 70" fill="none" xmlns="http://www.w3.org/2000/svg">
<path d="M12.825 24.535C14.751 24.535 16.452 24.985 17.928 25.885C19.422 26.767 20.574 28 21.384 29.584C22.194 31.168 22.599 32.959 22.599 34.957C22.599 37.009 21.978 38.908 20.736 40.654C19.512 42.382 17.982 43.759 16.146 44.785C14.31 45.793 12.564 46.297 10.908 46.297C10.062 46.297 9.234 46.252 8.424 46.162C7.038 46.072 5.985 46.027 5.265 46.027H1.485V44.92L4.023 42.922V27.046L1.161 26.128L1.836 24.778H5.238C6.912 24.778 8.559 24.724 10.179 24.616C11.367 24.544 12.249 24.508 12.825 24.508V24.535ZM11.664 44.11C12.906 44.11 14.031 43.777 15.039 43.111C16.047 42.427 16.839 41.491 17.415 40.303C17.991 39.097 18.279 37.747 18.279 36.253C18.279 34.471 18 32.851 17.442 31.393C16.902 29.917 16.065 28.747 14.931 27.883C13.797 27.001 12.393 26.56 10.719 26.56C9.729 26.56 8.829 26.839 8.019 27.397V43.489C9.045 43.885 10.26 44.083 11.664 44.083V44.11Z" fill="#FFA800"/>
<path d="M34.439 27.937V46H32.603L19.859 30.475V43.219L23.099 44.65L22.424 46H15.485V44.893L18.023 42.841V27.694L15.161 26.128L15.836 24.778H20.183L32.603 39.871V27.505L29.39 26.128L30.065 24.778H37.004V25.885L34.439 27.937Z" fill="#7E4EE2"/>
</svg>
